<svg width="185" height="177" viewBox="0 0 185 177" fill="none" xmlns="http://www.w3.org/2000/svg">
<path d="M172.313 0L160.383 19.7204L157.645 18.8343C147.095 15.4151 129.846 16.0553 119.711 18.877L117.028 19.6248L105.881 0.757522C92.8099 27.6746 93.3408 46.4498 100.132 58.5041C107.405 71.4111 122.434 77.584 138.656 77.3834C157.602 77.1479 173.236 69.7402 180.258 56.3197C186.834 43.7532 186.354 25.0487 172.312 0.000388458L172.313 0ZM118.083 39.0949C125.254 39.1338 129.495 45.0564 130.312 53.3374C115.888 60.2986 109.338 54.6581 106.535 43.0201C110.959 40.275 114.823 39.0775 118.083 39.0946L118.083 39.0949ZM160.55 39.0949C163.809 39.0775 167.673 40.275 172.097 43.0205C169.295 54.6582 162.744 60.2986 148.32 53.3374C149.138 45.0564 153.379 39.1334 160.549 39.0949H160.55ZM46.4538 58.9017C45.9773 58.8978 45.5031 58.9005 45.0312 58.9087C33.3031 59.117 23.2104 63.0247 15.5921 69.2372C-1.29339 83.0079 -6.66717 108.397 10.6077 133.831C18.4951 147.044 27.8772 154.913 38.1245 158.779C50.8924 163.597 64.0315 162.208 76.9684 160.378C89.905 158.547 102.564 156.246 114.629 157.105C126.694 157.965 138.762 161.062 149.806 173.105C157.336 181.316 168.03 172.473 159.064 163.716C145.451 150.421 130.875 145.286 116.552 144.267C102.23 143.249 88.4902 146.093 76.05 147.854C63.6098 149.615 52.624 150.4 43.1847 146.839C37.5917 144.729 32.1821 141.086 27.0354 134.735H163.748C169.063 114.411 169.527 93.3932 164.476 79.516C156.794 82.8159 147.992 84.5299 138.746 84.6454H138.745C127.144 84.7892 115.636 81.9538 106.522 75.7747C104.645 76.9918 102.793 78.2468 100.967 79.539L98.7383 81.1158L96.6045 79.4127C78.4807 64.9541 61.2245 59.0152 46.4542 58.9013L46.4538 58.9017Z" fill="#1D0B20"/>
</svg>
